<svg viewBox="0 0 32 32" xmlns="http://www.w3.org/2000/svg">
  <!-- Favicon for AskRepo -->
  <circle cx="16" cy="16" r="15" fill="#4361ee"/>
  
  <!-- Simplified code bracket elements -->
  <g fill="white">
    <!-- Left bracket -->
    <path d="M13,9c1,0,1.8,0.8,1.8,1.8S14,12.5,13,12.5c-1.5,0-2.8,1.2-2.8,2.8c0,1.5,1.2,2.8,2.8,2.8c1,0,1.8,0.8,1.8,1.8
      S14,21.5,13,21.5c-3.5,0-6.2-2.8-6.2-6.2S9.5,9,13,9z"/>
    <!-- Right bracket -->
    <path d="M19,9c3.5,0,6.2,2.8,6.2,6.2s-2.8,6.2-6.2,6.2c-1,0-1.8-0.8-1.8-1.8s0.8-1.8,1.8-1.8c1.5,0,2.8-1.2,2.8-2.8
      c0-1.5-1.2-2.8-2.8-2.8c-1,0-1.8-0.8-1.8-1.8S18,9,19,9z"/>
    <!-- Question mark dot -->
    <circle cx="16" cy="15" r="1.5"/>
  </g>
</svg>