<svg viewBox="0 0 600 200" xmlns="http://www.w3.org/2000/svg">
<!--Logo Container-->
  <g id="askrepo-logo">
<!--Speech bubble with code brackets-->
    <g id="speech-bubble">
<!--Main bubble shape-->
      <circle cx="140" cy="90" r="55" fill="#4361ee"/>
<!--Code bracket elements-->
      <g fill="white">
<!--Left bracket-->
        <path d="M125,65c2.8,0,5,2.2,5,5c0,2.8-2.2,5-5,5c-8.3,0-15,6.7-15,15c0,8.3,6.7,15,15,15c2.8,0,5,2.2,5,5
          c0,2.8-2.2,5-5,5c-13.8,0-25-11.2-25-25C100,76.2,111.2,65,125,65z"/>
<!--Right bracket-->
        <path d="M155,65c13.8,0,25,11.2,25,25c0,13.8-11.2,25-25,25c-2.8,0-5-2.2-5-5c0-2.8,2.2-5,5-5c8.3,0,15-6.7,15-15
          c0-8.3-6.7-15-15-15c-2.8,0-5-2.2-5-5C150,67.2,152.2,65,155,65z"/>
<!--Question mark dot-->
        <circle cx="140" cy="90" r="6"/>
      </g>
    </g>
<!--Text "AskRepo"-->
    <g id="text">
      <text x="215" y="115" font-family="Arial, sans-serif" font-weight="700" font-size="70" fill="#333">
        <tspan fill="#4361ee">Ask</tspan><tspan fill="#fff">Repo</tspan>
      </text>
    </g>
  </g>
</svg>
